<?xml version="1.0" encoding="UTF-8" standalone="no"?>
<!-- Generator: Adobe Illustrator 19.1.0, SVG Export Plug-In . SVG Version: 6.00 Build 0)  -->

<svg
   version="1.1"
   id="Layer_1"
   x="0px"
   y="0px"
   viewBox="-237 286.5 123.61956 40.018262"
   xml:space="preserve"
   sodipodi:docname="fulcio_logo-readme.svg"
   width="123.61956"
   height="40.018261"
   inkscape:version="1.1.1 (3bf5ae0d25, 2021-09-20)"
   xmlns:inkscape="http://www.inkscape.org/namespaces/inkscape"
   xmlns:sodipodi="http://sodipodi.sourceforge.net/DTD/sodipodi-0.dtd"
   xmlns="http://www.w3.org/2000/svg"
   xmlns:svg="http://www.w3.org/2000/svg"><defs
   id="defs366"><marker
     style="overflow:visible"
     id="Arrow1Lstart"
     refX="0"
     refY="0"
     orient="auto"
     inkscape:stockid="Arrow1Lstart"
     inkscape:isstock="true"><path
       transform="matrix(0.8,0,0,0.8,10,0)"
       style="fill:context-stroke;fill-rule:evenodd;stroke:context-stroke;stroke-width:1pt"
       d="M 0,0 5,-5 -12.5,0 5,5 Z"
       id="path2511" /></marker></defs><sodipodi:namedview
   id="namedview364"
   pagecolor="#505050"
   bordercolor="#eeeeee"
   borderopacity="1"
   inkscape:pageshadow="0"
   inkscape:pageopacity="0"
   inkscape:pagecheckerboard="0"
   showgrid="false"
   fit-margin-top="0"
   fit-margin-left="0"
   fit-margin-right="0"
   fit-margin-bottom="0"
   inkscape:zoom="7.1006656"
   inkscape:cx="90.202812"
   inkscape:cy="28.729701"
   inkscape:window-width="1920"
   inkscape:window-height="1011"
   inkscape:window-x="0"
   inkscape:window-y="0"
   inkscape:window-maximized="1"
   inkscape:current-layer="Layer_1" />
<style
   type="text/css"
   id="style273">
	.st0{display:none;}
	.st1{display:inline;fill:#444444;}
	.st2{display:inline;}
	.st3{fill:#444444;}
</style>
<g
   id="Layer_1_1_"
   class="st0"
   transform="translate(-9.1035767,19.559967)">
	<path
   class="st1"
   d="m -519.1,676.3 c 2.7,0 4.4,-1.3 4.4,-3.5 0,-1.7 -1,-2.7 -3,-3.1 l -1.8,-0.4 c -1,-0.2 -1.5,-0.6 -1.5,-1.2 0,-0.7 0.7,-1.1 1.7,-1.1 0.8,0 1.6,0.3 2.2,0.9 0.5,0.4 0.8,0.7 1.2,0.7 0.5,0 0.9,-0.4 0.9,-0.9 0,-0.6 -0.4,-1.2 -1,-1.7 -0.8,-0.6 -2,-1 -3.4,-1 -2.6,0 -4.2,1.2 -4.2,3.3 0,1.6 1.1,2.7 3.2,3.1 l 1.7,0.3 c 0.9,0.2 1.4,0.6 1.4,1.3 0,0.8 -0.7,1.2 -1.8,1.2 -1.1,0 -1.9,-0.3 -2.7,-1.2 -0.5,-0.5 -0.8,-0.7 -1.2,-0.7 -0.6,0 -1,0.4 -1,1 0,0.5 0.3,1.1 0.8,1.6 1,0.9 2.5,1.4 4.1,1.4 z"
   id="path275" />
	<path
   class="st1"
   d="m -510.2,676.2 c 0.7,0 1.2,-0.5 1.2,-1.2 v -8.7 c 0,-0.7 -0.5,-1.2 -1.2,-1.2 -0.7,0 -1.2,0.5 -1.2,1.2 v 8.7 c 0,0.7 0.5,1.2 1.2,1.2 z m -1.5,-13.9 c 0,0.8 0.6,1.5 1.5,1.5 0.9,0 1.5,-0.6 1.5,-1.5 0,-0.8 -0.6,-1.5 -1.5,-1.5 -0.8,0 -1.5,0.6 -1.5,1.5 z"
   id="path277" />
	<path
   class="st1"
   d="m -500.7,678.6 c 3.6,0 5.6,-1.2 5.6,-3.2 0,-1.7 -1.2,-2.6 -3.5,-2.6 h -3.4 c -0.6,0 -1,-0.3 -1,-0.7 0,-0.2 0.1,-0.4 0.3,-0.6 0.6,0.2 1.3,0.3 2.2,0.3 2.8,0 4.6,-1.3 4.6,-3.4 0,-0.6 -0.1,-1.1 -0.4,-1.6 l 0.8,-0.7 c 0.3,-0.3 0.5,-0.6 0.5,-1 0,-0.4 -0.4,-0.9 -0.9,-0.9 -0.3,0 -0.6,0.1 -0.9,0.4 l -1,0.8 c -0.7,-0.3 -1.6,-0.5 -2.7,-0.5 -2.8,0 -4.6,1.3 -4.6,3.4 0,0.9 0.4,1.7 1,2.3 -0.8,0.5 -1.1,1 -1.1,1.8 0,0.7 0.3,1.2 0.8,1.6 -0.8,0.4 -1.3,1 -1.3,1.9 0,1.8 1.8,2.7 5,2.7 z m -2.6,-3 c 0,-0.4 0.2,-0.7 0.5,-1 0.1,0 0.3,0 0.4,0 h 3.3 c 1,0 1.5,0.3 1.5,0.9 0,0.8 -1,1.2 -3,1.2 -1.8,0.1 -2.7,-0.3 -2.7,-1.1 z m 0.6,-7.2 c 0,-1 0.8,-1.7 2.2,-1.7 1.3,0 2.2,0.6 2.2,1.7 0,1 -0.8,1.7 -2.2,1.7 -1.3,-0.1 -2.2,-0.7 -2.2,-1.7 z"
   id="path279" />
	<path
   class="st1"
   d="m -487.7,676.3 c 2.7,0 4.4,-1.3 4.4,-3.5 0,-1.7 -1,-2.7 -3,-3.1 l -1.8,-0.4 c -1,-0.2 -1.5,-0.6 -1.5,-1.2 0,-0.7 0.7,-1.1 1.7,-1.1 0.8,0 1.6,0.3 2.2,0.9 0.5,0.4 0.8,0.7 1.2,0.7 0.5,0 0.9,-0.4 0.9,-0.9 0,-0.6 -0.4,-1.2 -1,-1.7 -0.8,-0.6 -2,-1 -3.4,-1 -2.6,0 -4.2,1.2 -4.2,3.3 0,1.6 1.1,2.7 3.2,3.1 l 1.7,0.3 c 0.9,0.2 1.4,0.6 1.4,1.3 0,0.8 -0.7,1.2 -1.8,1.2 -1.1,0 -1.9,-0.3 -2.7,-1.2 -0.5,-0.5 -0.8,-0.7 -1.2,-0.7 -0.6,0 -1,0.4 -1,1 0,0.5 0.3,1.1 0.8,1.6 1,0.9 2.4,1.4 4.1,1.4 z"
   id="path281" />
	<path
   class="st1"
   d="m -475.8,676.3 c 1.1,0 2.1,-0.4 2.7,-1 0.4,-0.4 0.6,-0.8 0.6,-1.2 0,-0.6 -0.4,-1 -0.9,-1 -0.4,0 -0.6,0.2 -0.9,0.4 -0.4,0.3 -0.8,0.5 -1.2,0.5 -0.7,0 -1.2,-0.5 -1.2,-1.4 v -5.2 h 2.8 c 0.6,0 1.1,-0.4 1.1,-1.1 0,-0.6 -0.5,-1.1 -1.1,-1.1 h -2.8 v -1.8 c 0,-0.7 -0.5,-1.2 -1.2,-1.2 -0.7,0 -1.2,0.5 -1.2,1.2 v 1.8 h -1.5 c -0.7,0 -1.1,0.4 -1.1,1.1 0,0.6 0.5,1.1 1.1,1.1 h 1.5 v 5.5 c 0,2.1 1.4,3.4 3.3,3.4 z"
   id="path283" />
	<path
   class="st1"
   d="m -465,676.3 c 3.3,0 5.7,-2.3 5.7,-5.7 0,-3.4 -2.4,-5.7 -5.7,-5.7 -3.3,0 -5.7,2.3 -5.7,5.7 0,3.4 2.4,5.7 5.7,5.7 z m -3.3,-5.7 c 0,-2.1 1.4,-3.5 3.3,-3.5 1.9,0 3.3,1.4 3.3,3.5 0,2.1 -1.4,3.5 -3.3,3.5 -1.9,0 -3.3,-1.4 -3.3,-3.5 z"
   id="path285" />
	<path
   class="st1"
   d="m -453.9,670.3 c 0,-1.9 0.9,-3 2,-3 0.5,0 1,0.3 1.2,0.6 0.2,0.3 0.6,0.5 1,0.5 0.8,0 1.2,-0.5 1.2,-1.3 0,-0.5 -0.2,-1 -0.6,-1.4 -0.4,-0.4 -1.1,-0.7 -2,-0.7 -1.2,0 -2.2,0.5 -2.8,1.4 v -0.1 c 0,-0.7 -0.5,-1.2 -1.2,-1.2 -0.7,0 -1.2,0.5 -1.2,1.2 v 8.7 c 0,0.7 0.5,1.2 1.2,1.2 0.7,0 1.2,-0.5 1.2,-1.2 0,0 0,-4.7 0,-4.7 z"
   id="path287" />
	<path
   class="st1"
   d="m -441.1,676.3 c 1.7,0 3.4,-0.6 4.3,-1.9 0.2,-0.3 0.3,-0.6 0.3,-0.9 0,-0.6 -0.3,-1 -0.9,-1 -0.4,0 -0.7,0.2 -1.1,0.5 -0.6,0.8 -1.4,1.1 -2.5,1.1 -1.9,0 -3.3,-1.1 -3.4,-2.7 h 7 c 0.8,0 1.3,-0.4 1.3,-1.3 0,-2.9 -2,-5 -5.2,-5 -3.2,0 -5.4,2.3 -5.4,5.6 -0.2,3.4 2.1,5.6 5.6,5.6 z m -3.4,-6.9 c 0.2,-1.6 1.3,-2.5 2.9,-2.5 1.7,0 2.8,0.9 2.9,2.5 z"
   id="path289" />
	<path
   class="st1"
   d="m -546,670.6 c 0,-1.9 0,-3.8 0,-5.7 0,-0.6 0.1,-1.2 0.3,-1.8 0.4,-1.2 1.2,-2.1 2.4,-2.5 1.4,-0.5 2.9,-0.4 4.3,0.3 0.4,0.2 0.7,0.4 0.9,0.7 0.3,0.4 0.3,1 -0.1,1.4 -0.2,0.2 -0.6,0.2 -0.9,0.1 -0.5,-0.2 -0.9,-0.5 -1.4,-0.6 -0.5,-0.2 -1.1,-0.2 -1.7,0 -0.9,0.3 -1.3,1 -1.5,1.9 0,0.2 0,0.5 0,0.7 0,3.9 0,7.7 0,11.6 0,0.8 -0.1,1.6 -0.4,2.3 -0.6,1.2 -1.5,1.9 -2.8,2.2 -1.1,0.2 -2.2,0.2 -3.2,-0.2 -0.5,-0.2 -1,-0.5 -1.4,-0.9 -0.3,-0.4 -0.3,-0.9 0,-1.2 0.2,-0.3 0.6,-0.4 0.9,-0.3 0.3,0.1 0.5,0.3 0.8,0.4 0.8,0.4 1.6,0.5 2.5,0.3 0.8,-0.2 1.2,-0.8 1.4,-1.6 0.1,-0.3 0.1,-0.6 0.1,-0.9 -0.2,-2.2 -0.2,-4.2 -0.2,-6.2 z"
   id="path291" />
	<circle
   class="st1"
   cx="-537.09998"
   cy="670.5"
   r="2"
   id="circle293" />
	<circle
   class="st1"
   cx="-552.5"
   cy="670.5"
   r="2"
   id="circle295" />
</g>
<g
   id="Cosign"
   class="st0"
   transform="translate(-9.1035767,19.559967)">
	<g
   class="st2"
   id="g318">
		<path
   class="st3"
   d="m -514.3,671.9 c -0.5,0 -0.8,0.2 -1.1,0.7 -0.5,0.8 -1.3,1.5 -2.6,1.5 -1.9,0 -3.2,-1.4 -3.2,-3.5 0,-2.1 1.3,-3.5 3.2,-3.5 1.1,0 2,0.6 2.5,1.4 0.4,0.5 0.7,0.7 1.2,0.7 0.6,0 1,-0.4 1,-1 0,-0.5 -0.4,-1.3 -0.9,-1.9 -0.8,-0.8 -2.1,-1.4 -3.9,-1.4 -3.2,0 -5.6,2.4 -5.6,5.7 0,3.3 2.4,5.7 5.6,5.7 1.7,0 3.1,-0.6 3.9,-1.5 0.5,-0.6 0.9,-1.3 0.9,-1.8 0.1,-0.6 -0.4,-1.1 -1,-1.1 z"
   id="path298" />
		<path
   class="st3"
   d="m -504.7,665 c -3.3,0 -5.7,2.3 -5.7,5.7 0,3.4 2.4,5.7 5.7,5.7 3.3,0 5.7,-2.3 5.7,-5.7 0.1,-3.4 -2.3,-5.7 -5.7,-5.7 z m 0,9.1 c -1.9,0 -3.3,-1.4 -3.3,-3.5 0,-2.1 1.4,-3.5 3.3,-3.5 1.9,0 3.3,1.4 3.3,3.5 0,2.1 -1.3,3.5 -3.3,3.5 z"
   id="path300" />
		<path
   class="st3"
   d="m -489.8,669.7 -1.8,-0.4 c -1,-0.2 -1.5,-0.6 -1.5,-1.2 0,-0.7 0.7,-1.1 1.7,-1.1 0.8,0 1.6,0.3 2.2,0.9 0.5,0.4 0.8,0.7 1.2,0.7 0.5,0 0.9,-0.4 0.9,-0.9 0,-0.6 -0.4,-1.2 -1,-1.7 -0.8,-0.6 -2,-1 -3.4,-1 -2.6,0 -4.2,1.2 -4.2,3.3 0,1.6 1.1,2.7 3.2,3.1 l 1.7,0.3 c 0.9,0.2 1.4,0.6 1.4,1.3 0,0.8 -0.7,1.2 -1.8,1.2 -1.1,0 -1.9,-0.3 -2.7,-1.2 -0.5,-0.5 -0.8,-0.7 -1.2,-0.7 -0.6,0 -1,0.4 -1,1 0,0.5 0.3,1.1 0.8,1.6 0.8,0.8 2.2,1.3 3.9,1.3 2.7,0 4.4,-1.3 4.4,-3.5 0.2,-1.5 -0.8,-2.6 -2.8,-3 z"
   id="path302" />
		<path
   class="st3"
   d="m -481.5,660.8 c -0.9,0 -1.5,0.6 -1.5,1.5 0,0.8 0.6,1.5 1.5,1.5 0.9,0 1.5,-0.6 1.5,-1.5 0,-0.8 -0.6,-1.5 -1.5,-1.5 z"
   id="path304" />
		<path
   class="st3"
   d="m -481.5,665.1 c -0.7,0 -1.2,0.5 -1.2,1.2 v 8.7 c 0,0.7 0.5,1.2 1.2,1.2 0.7,0 1.2,-0.5 1.2,-1.2 v -8.7 c 0,-0.7 -0.5,-1.2 -1.2,-1.2 z"
   id="path306" />
		<path
   class="st3"
   d="m -465.5,665.2 c 0,-0.4 -0.4,-0.9 -0.9,-0.9 -0.3,0 -0.6,0.1 -0.9,0.4 l -1,0.8 c -0.7,-0.3 -1.6,-0.5 -2.7,-0.5 -2.8,0 -4.6,1.3 -4.6,3.4 0,0.9 0.4,1.7 1,2.3 -0.8,0.5 -1.1,1 -1.1,1.8 0,0.7 0.3,1.2 0.8,1.6 -0.8,0.4 -1.3,1 -1.3,1.9 0,1.7 1.8,2.6 5,2.6 3.6,0 5.6,-1.2 5.6,-3.2 0,-1.7 -1.2,-2.6 -3.5,-2.6 h -3.5 c -0.6,0 -1,-0.3 -1,-0.7 0,-0.2 0.1,-0.4 0.3,-0.6 0.6,0.2 1.3,0.3 2.2,0.3 2.8,0 4.6,-1.3 4.6,-3.4 0,-0.6 -0.1,-1.1 -0.4,-1.6 l 0.8,-0.7 c 0.4,-0.2 0.6,-0.6 0.6,-0.9 z m -7.8,9.5 c 0.1,0 0.3,0 0.4,0 h 3.3 c 1,0 1.5,0.3 1.5,0.9 0,0.8 -1,1.2 -3,1.2 -1.9,0 -2.8,-0.4 -2.8,-1.2 0.1,-0.3 0.3,-0.7 0.6,-0.9 z m 2.3,-4.6 c -1.3,0 -2.2,-0.6 -2.2,-1.7 0,-1 0.8,-1.7 2.2,-1.7 1.3,0 2.2,0.6 2.2,1.7 0,1 -0.8,1.7 -2.2,1.7 z"
   id="path308" />
		<path
   class="st3"
   d="m -455.9,665 c -1.5,0 -2.7,0.5 -3.3,1.5 v -0.2 c 0,-0.7 -0.5,-1.2 -1.2,-1.2 -0.7,0 -1.2,0.5 -1.2,1.2 v 8.7 c 0,0.7 0.5,1.2 1.2,1.2 0.7,0 1.2,-0.5 1.2,-1.2 v -4.8 c 0,-1.8 1.1,-3 2.8,-3 1.6,0 2.5,0.9 2.5,2.8 v 5 c 0,0.7 0.5,1.2 1.2,1.2 0.7,0 1.2,-0.5 1.2,-1.2 v -5.4 c 0,-2.9 -1.8,-4.6 -4.4,-4.6 z"
   id="path310" />
		<path
   class="st3"
   d="m -541.6,676.1 c -2.8,-1.5 -4.9,-0.8 -6.8,-0.3 -0.7,0.2 -1.3,0.4 -2,0.5 -0.6,0.1 -1.4,-0.1 -2.3,-0.4 -0.6,-0.2 -1.2,0.1 -1.4,0.6 -0.2,0.6 0.1,1.2 0.6,1.4 1,0.4 1.9,0.6 2.7,0.6 0.2,0 0.4,0 0.6,0 0.9,-0.1 1.6,-0.3 2.4,-0.6 1.7,-0.5 3.1,-1 5.2,0.1 0.5,0.3 1.2,0.1 1.5,-0.5 0.2,-0.5 0,-1.2 -0.5,-1.4 z"
   id="path312" />
		<path
   class="st3"
   d="m -536.4,675.3 -1.6,1.1 c -0.3,0.2 -0.3,0.5 0,0.7 l 1.8,0.9 c 0.3,0.2 0.6,0 0.6,-0.4 l -0.2,-2 c 0,-0.4 -0.3,-0.5 -0.6,-0.3 z"
   id="path314" />
		<path
   class="st3"
   d="m -538,672.3 -5.8,-8 c -0.3,-0.4 -0.9,-0.5 -1.3,-0.2 l -0.6,0.4 c -0.4,0.3 -0.5,0.9 -0.2,1.3 l 5.8,8 c 0.3,0.4 0.9,0.5 1.3,0.2 l 0.6,-0.4 c 0.4,-0.3 0.5,-0.9 0.2,-1.3 z"
   id="path316" />
	</g>
</g>
<g
   id="Rekor"
   class="st0"
   transform="translate(-9.1035767,19.559967)">
	<g
   class="st2"
   id="g337">
		<path
   class="st3"
   d="m -518.5,665 c -1.2,0 -2.2,0.5 -2.8,1.4 v -0.1 c 0,-0.7 -0.5,-1.2 -1.2,-1.2 -0.7,0 -1.2,0.5 -1.2,1.2 v 8.7 c 0,0.7 0.5,1.2 1.2,1.2 0.7,0 1.2,-0.5 1.2,-1.2 v -4.7 c 0,-1.9 0.9,-3 2,-3 0.5,0 1,0.3 1.2,0.6 0.2,0.3 0.6,0.5 1,0.5 0.8,0 1.2,-0.5 1.2,-1.3 0,-0.5 -0.2,-1 -0.6,-1.4 -0.4,-0.4 -1.1,-0.7 -2,-0.7 z"
   id="path321" />
		<path
   class="st3"
   d="m -502.8,670.1 c 0,-2.9 -2,-5 -5.2,-5 -3.2,0 -5.4,2.3 -5.4,5.6 0,3.5 2.3,5.7 5.8,5.7 1.7,0 3.4,-0.6 4.3,-1.9 0.2,-0.3 0.3,-0.6 0.3,-0.9 0,-0.6 -0.3,-1 -0.9,-1 -0.4,0 -0.7,0.2 -1.1,0.5 -0.6,0.8 -1.4,1.1 -2.5,1.1 -1.9,0 -3.3,-1.1 -3.4,-2.7 h 7 c 0.6,-0.1 1.1,-0.5 1.1,-1.4 z m -8.3,-0.6 c 0.2,-1.6 1.3,-2.5 2.9,-2.5 1.7,0 2.8,0.9 2.9,2.5 z"
   id="path323" />
		<path
   class="st3"
   d="m -492.7,669.8 3,-2.6 c 0.5,-0.4 0.6,-0.8 0.6,-1.1 0,-0.6 -0.5,-1 -1.1,-1 -0.4,0 -0.8,0.1 -1.4,0.7 l -5.2,4.5 V 663 c 0,-0.7 -0.5,-1.2 -1.2,-1.2 -0.7,0 -1.2,0.5 -1.2,1.2 v 12 c 0,0.7 0.5,1.2 1.2,1.2 0.7,0 1.2,-0.5 1.2,-1.2 v -1.8 l 2.1,-1.8 3.4,4.3 c 0.3,0.5 0.8,0.6 1.1,0.6 0.7,0 1.2,-0.5 1.2,-1 0,-0.3 0,-0.5 -0.5,-1.1 z"
   id="path325" />
		<path
   class="st3"
   d="m -480.3,665 c -3.3,0 -5.7,2.3 -5.7,5.7 0,3.4 2.4,5.7 5.7,5.7 3.3,0 5.7,-2.3 5.7,-5.7 0,-3.4 -2.4,-5.7 -5.7,-5.7 z m 0,9.2 c -1.9,0 -3.3,-1.4 -3.3,-3.5 0,-2.1 1.4,-3.5 3.3,-3.5 1.9,0 3.3,1.4 3.3,3.5 0,2.1 -1.4,3.5 -3.3,3.5 z"
   id="path327" />
		<path
   class="st3"
   d="m -463.5,665.7 c -0.4,-0.4 -1.1,-0.7 -2,-0.7 -1.2,0 -2.2,0.5 -2.8,1.4 v -0.1 c 0,-0.7 -0.5,-1.2 -1.2,-1.2 -0.7,0 -1.2,0.5 -1.2,1.2 v 8.7 c 0,0.7 0.5,1.2 1.2,1.2 0.7,0 1.2,-0.5 1.2,-1.2 v -4.7 c 0,-1.9 0.9,-3 2,-3 0.5,0 1,0.3 1.2,0.6 0.2,0.3 0.6,0.5 1,0.5 0.8,0 1.2,-0.5 1.2,-1.3 0,-0.5 -0.2,-1 -0.6,-1.4 z"
   id="path329" />
		<path
   class="st3"
   d="m -537.6,677.3 h -13.3 c -0.4,0 -0.8,-0.3 -0.8,-0.8 v -11 c 0.2,0.1 0.5,0.1 0.8,0.1 h 13.3 c 0.5,0 0.8,-0.4 0.8,-0.8 0,-0.5 -0.4,-0.8 -0.8,-0.8 h -2.6 v -2.3 c 0,-0.5 -0.4,-0.8 -0.8,-0.8 h -9.9 c -1.3,0 -2.4,1.1 -2.4,2.4 v 13.4 c 0,1.3 1.1,2.4 2.4,2.4 h 13.3 c 0.5,0 0.8,-0.4 0.8,-0.8 0,-0.6 -0.4,-1 -0.8,-1 z m -13.3,-14.9 h 9.1 v 1.5 h -9.1 c -0.4,0 -0.8,-0.3 -0.8,-0.8 0,-0.3 0.4,-0.7 0.8,-0.7 z"
   id="path331" />
		<circle
   class="st3"
   cx="-538.20001"
   cy="669"
   r="1.4"
   id="circle333" />
		<circle
   class="st3"
   cx="-538.20001"
   cy="673.79999"
   r="1.4"
   id="circle335" />
	</g>
</g>

<rect
   style="fill:#444444;fill-opacity:1;stroke-width:1.42306;stroke-miterlimit:4;stroke-dasharray:none"
   id="rect3579"
   width="123.61956"
   height="40.018261"
   x="-237"
   y="286.5"
   ry="12.764418" /><g
   id="Fulcio"
   transform="translate(12.328448,10.964272)"
   style="fill:#ffead7;fill-opacity:1">
	<g
   id="g360"
   style="fill:#ffead7;fill-opacity:1">
		<path
   class="st3"
   d="m -200.5,289.4 c 0.5,0 0.8,0.1 1.1,0.3 0.2,0.1 0.3,0.1 0.5,0.1 0.5,0 0.9,-0.4 0.9,-0.9 0,-0.4 -0.2,-0.7 -0.5,-0.9 -0.5,-0.4 -1.3,-0.6 -2.2,-0.6 -2.2,0 -3.5,1.3 -3.5,3.3 v 0.3 h -1.5 c -0.7,0 -1.1,0.4 -1.1,1.1 0,0.6 0.5,1.1 1.1,1.1 h 1.5 v 7.6 c 0,0.7 0.5,1.2 1.2,1.2 0.7,0 1.2,-0.5 1.2,-1.2 v -7.6 h 2.5 c 0.7,0 1.1,-0.4 1.1,-1.1 0,-0.6 -0.5,-1.1 -1.1,-1.1 h -2.5 v -0.2 c -0.1,-0.9 0.3,-1.4 1.3,-1.4 z"
   id="path340"
   style="fill:#ffead7;fill-opacity:1" />
		<path
   class="st3"
   d="m -185.9,290.8 c -0.7,0 -1.2,0.5 -1.2,1.2 v 4.8 c 0,1.8 -1.1,3 -2.8,3 -1.6,0 -2.5,-0.9 -2.5,-2.8 v -5 c 0,-0.7 -0.5,-1.2 -1.2,-1.2 -0.7,0 -1.2,0.5 -1.2,1.2 v 5.4 c 0,2.9 1.7,4.6 4.4,4.6 1.5,0 2.7,-0.5 3.3,-1.5 v 0.2 c 0,0.7 0.5,1.2 1.2,1.2 0.7,0 1.2,-0.5 1.2,-1.2 V 292 c 0,-0.7 -0.5,-1.2 -1.2,-1.2 z"
   id="path342"
   style="fill:#ffead7;fill-opacity:1" />
		<path
   class="st3"
   d="m -178.7,287.5 c -0.7,0 -1.2,0.5 -1.2,1.2 v 12 c 0,0.7 0.5,1.2 1.2,1.2 0.7,0 1.2,-0.5 1.2,-1.2 v -12 c 0,-0.7 -0.5,-1.2 -1.2,-1.2 z"
   id="path344"
   style="fill:#ffead7;fill-opacity:1" />
		<path
   class="st3"
   d="m -164.3,297.7 c -0.5,0 -0.8,0.2 -1.1,0.7 -0.5,0.8 -1.3,1.5 -2.6,1.5 -1.9,0 -3.2,-1.4 -3.2,-3.5 0,-2.1 1.3,-3.5 3.2,-3.5 1.1,0 2,0.6 2.5,1.4 0.4,0.5 0.7,0.7 1.2,0.7 0.6,0 1,-0.4 1,-1 0,-0.5 -0.4,-1.3 -0.9,-1.9 -0.8,-0.8 -2.1,-1.4 -3.9,-1.4 -3.2,0 -5.6,2.4 -5.6,5.7 0,3.3 2.4,5.7 5.6,5.7 1.7,0 3.1,-0.6 3.9,-1.5 0.5,-0.6 0.9,-1.3 0.9,-1.8 0.1,-0.7 -0.4,-1.1 -1,-1.1 z"
   id="path346"
   style="fill:#ffead7;fill-opacity:1" />
		<path
   class="st3"
   d="m -158.3,290.8 c -0.7,0 -1.2,0.5 -1.2,1.2 v 8.7 c 0,0.7 0.5,1.2 1.2,1.2 0.7,0 1.2,-0.5 1.2,-1.2 V 292 c 0,-0.7 -0.5,-1.2 -1.2,-1.2 z"
   id="path348"
   style="fill:#ffead7;fill-opacity:1" />
		<path
   class="st3"
   d="m -158.3,286.5 c -0.9,0 -1.5,0.6 -1.5,1.5 0,0.8 0.6,1.5 1.5,1.5 0.9,0 1.5,-0.6 1.5,-1.5 0,-0.8 -0.6,-1.5 -1.5,-1.5 z"
   id="path350"
   style="fill:#ffead7;fill-opacity:1" />
		<path
   class="st3"
   d="m -147.6,290.7 c -3.3,0 -5.7,2.3 -5.7,5.7 0,3.4 2.4,5.7 5.7,5.7 3.3,0 5.7,-2.3 5.7,-5.7 0,-3.4 -2.3,-5.7 -5.7,-5.7 z m 0,9.1 c -1.9,0 -3.3,-1.4 -3.3,-3.5 0,-2.1 1.4,-3.5 3.3,-3.5 1.9,0 3.3,1.4 3.3,3.5 0,2.1 -1.4,3.5 -3.3,3.5 z"
   id="path352"
   style="fill:#ffead7;fill-opacity:1" />
		<path
   class="st3"
   d="m -233.8,301.3 c -0.2,0 -0.4,0.1 -0.6,0.2 v 0 c -1.3,1 -2,1.4 -2.1,1.4 -0.4,0.3 -0.6,0.8 -0.4,1.3 0,0.1 0,0.1 0.1,0.2 0.1,0.3 0.4,0.4 0.6,0.5 0.1,0 0.2,0 0.2,0 0.2,0 0.4,0 0.5,-0.1 0.1,-0.1 0.8,-0.4 2.1,-1.4 0.3,-0.2 0.5,-0.5 0.5,-0.9 0.1,-0.7 -0.3,-1.2 -0.9,-1.2 z"
   id="path354"
   style="fill:#ffead7;fill-opacity:1" />
		<path
   class="st3"
   d="m -224.6,297.2 c -0.4,0 -0.8,0.3 -0.8,0.7 l -0.1,0.4 c -0.3,0.7 -0.9,1.6 -2.1,2.2 -0.3,0.1 -0.6,0.3 -0.9,0.4 -0.5,-0.1 -0.9,-0.3 -1.2,-0.5 -0.7,-0.4 -1.2,-1 -1.5,-1.5 -0.5,-0.7 -0.6,-1.4 -0.6,-1.4 v -0.1 -0.2 -3.1 h 3.2 v 0 0 c 0.5,0 0.8,-0.4 0.8,-0.8 0,-0.4 -0.4,-0.8 -0.8,-0.8 v 0 h -3.4 c -0.8,0 -1.5,0.7 -1.5,1.5 v 3.5 c 0,0 0,0.1 0,0.2 0,0.2 0.1,0.5 0.2,0.9 0.2,0.5 0.4,1 0.8,1.5 0.4,0.5 0.8,1 1.5,1.5 0.4,0.3 1,0.6 1.6,0.8 0.2,0.1 0.5,0.2 0.7,0.2 0.1,0 0.1,0 0.2,0 h 0.1 c 0.1,0 0.1,0 0.2,0 v 0 c 2.8,-0.7 4.1,-2.8 4.5,-4.1 v 0 c 0.1,-0.1 0.1,-0.2 0.1,-0.4 -0.2,-0.5 -0.6,-0.9 -1,-0.9 z"
   id="path356"
   style="fill:#ffead7;fill-opacity:1" />
		<path
   class="st3"
   d="m -222.2,287.4 c -0.1,-0.2 -0.3,-0.3 -0.5,-0.4 -0.2,-0.1 -0.4,0 -0.6,0.1 l -3.4,1.9 c -0.4,0.2 -0.5,0.7 -0.3,1.1 0.2,0.4 0.7,0.5 1.1,0.3 l 1.4,-0.8 c -0.1,0.3 -0.2,0.5 -0.5,1.1 -0.3,0.6 -0.6,1.1 -0.9,1.6 -0.2,0.3 -0.3,0.6 -0.5,0.8 -0.2,0.3 -0.4,0.6 -0.6,0.8 -0.4,0.6 -0.8,1.1 -1.3,1.6 -0.6,0.7 -1,1.2 -1.6,1.8 v 0 0 c -0.2,0.2 -0.3,0.4 -0.3,0.7 0,0.6 0.5,1 1,1 0.3,0 0.5,-0.1 0.7,-0.3 0,0 0,0 0.1,0 v 0 c 0.5,-0.5 1,-1 1.5,-1.6 0.6,-0.7 1.1,-1.4 1.7,-2.2 0.3,-0.4 0.6,-0.8 0.8,-1.2 0.2,-0.3 0.4,-0.6 0.5,-0.9 0.3,-0.5 0.5,-1 0.8,-1.5 0.3,-0.6 0.4,-0.9 0.5,-1.2 l 0.7,1.3 c 0.2,0.3 0.4,0.4 0.7,0.4 0.1,0 0.3,0 0.4,-0.1 0.4,-0.2 0.5,-0.7 0.3,-1.1 z"
   id="path358"
   style="fill:#ffead7;fill-opacity:1" />
	</g>
</g></svg>
